<svg width="25" height="25" viewBox="0 0 25 25" fill="none" xmlns="http://www.w3.org/2000/svg">
<path d="M21.3555 10.6143H18.3451C15.8763 10.6143 13.8659 8.60384 13.8659 6.13509V3.12467C13.8659 2.55176 13.3971 2.08301 12.8242 2.08301H8.40755C5.19922 2.08301 2.60547 4.16634 2.60547 7.88509V17.1143C2.60547 20.833 5.19922 22.9163 8.40755 22.9163H16.5951C19.8034 22.9163 22.3971 20.833 22.3971 17.1143V11.6559C22.3971 11.083 21.9284 10.6143 21.3555 10.6143Z" fill="white"/>
<path opacity="0.5" d="M18.1576 9.17661C19.1471 9.18702 20.5221 9.18702 21.6992 9.18702C22.293 9.18702 22.6055 8.48911 22.1888 8.07244C20.6888 6.56202 18.0013 3.84327 16.4596 2.30161C16.0326 1.87452 15.293 2.16619 15.293 2.75994V6.39536C15.293 7.91619 16.5846 9.17661 18.1576 9.17661Z" fill="white"/>
<rect x="6.25" y="14.583" width="12.5" height="1.5625" rx="0.78125" fill="#D5C1E5"/>
<rect x="6.25" y="17.708" width="8.33333" height="1.5625" rx="0.78125" fill="#D5C1E5"/>
</svg>
