<svg width="25" height="25" viewBox="0 0 25 25" fill="none" xmlns="http://www.w3.org/2000/svg">
<path d="M2.19917 16.2991C3.59084 21.2629 8.59546 23.3301 12.1243 24.3657C12.3031 24.4182 12.4917 24.4182 12.6705 24.3657C16.1993 23.3301 21.204 21.2629 22.5956 16.2991C22.8351 15.4463 22.9674 14.5636 22.9674 13.6615L23.1154 3.95887C23.1239 3.4051 22.6804 2.95146 22.1276 2.91726C20.603 2.82293 18.9528 2.56573 17.3307 2.24437C16.3226 2.0457 15.3255 1.8212 14.3745 1.59507C13.7742 1.45281 13.1929 1.30933 12.6393 1.17157C12.4804 1.13205 12.3144 1.13205 12.1555 1.17157C11.6019 1.30933 11.0206 1.45281 10.4203 1.59507C9.46931 1.8212 8.47223 2.0457 7.46413 2.24437C5.84203 2.56573 4.19183 2.82293 2.66715 2.91726C2.11437 2.95146 1.67093 3.4051 1.67938 3.95887L1.8274 13.6615C1.8274 14.5636 1.95968 15.4463 2.19917 16.2991Z" fill="white"/>
<path opacity="0.6" d="M12.074 6.97892C12.2012 6.56432 12.784 6.56432 12.9112 6.97892L13.8453 10.0227C13.902 10.2075 14.0717 10.3336 14.2639 10.3336H17.3314C17.7505 10.3336 17.9304 10.8693 17.5974 11.1255L15.0785 13.0632C14.9326 13.1755 14.8716 13.3674 14.9259 13.5441L15.879 16.65C16.0049 17.0605 15.5334 17.3917 15.1944 17.1309L12.7586 15.2571C12.6016 15.1363 12.3837 15.1363 12.2266 15.2571L9.79087 17.1309C9.45188 17.3917 8.98033 17.0605 9.10627 16.65L10.0594 13.5441C10.1136 13.3674 10.0527 13.1755 9.90674 13.0632L7.38786 11.1255C7.05482 10.8693 7.23474 10.3336 7.65384 10.3336H10.7214C10.9135 10.3336 11.0832 10.2075 11.14 10.0227L12.074 6.97892Z" fill="#AA84CA"/>
</svg>
