<svg width="25" height="25" viewBox="0 0 25 25" fill="none" xmlns="http://www.w3.org/2000/svg">
<path d="M9.3737 2.08301C6.64453 2.08301 4.42578 4.30176 4.42578 7.03092C4.42578 9.70801 6.51953 11.8747 9.2487 11.9684C9.33203 11.958 9.41537 11.958 9.47787 11.9684C9.4987 11.9684 9.50911 11.9684 9.52995 11.9684C9.54036 11.9684 9.54037 11.9684 9.55078 11.9684C12.2174 11.8747 14.3112 9.70801 14.3216 7.03092C14.3216 4.30176 12.1029 2.08301 9.3737 2.08301Z" fill="white"/>
<path d="M14.668 14.7393C11.7617 12.8018 7.02214 12.8018 4.09505 14.7393C2.77214 15.6247 2.04297 16.8226 2.04297 18.1038C2.04297 19.3851 2.77214 20.5726 4.08464 21.4476C5.54297 22.4268 7.45964 22.9163 9.3763 22.9163C11.293 22.9163 13.2096 22.4268 14.668 21.4476C15.9805 20.5622 16.7096 19.3747 16.7096 18.083C16.6992 16.8018 15.9805 15.6143 14.668 14.7393Z" fill="white"/>
<path opacity="0.4" d="M20.8242 7.64586C20.9909 9.66669 19.5534 11.4375 17.5638 11.6771C17.5534 11.6771 17.5534 11.6771 17.543 11.6771H17.5117C17.4492 11.6771 17.3867 11.6771 17.3346 11.6979C16.3242 11.75 15.3971 11.4271 14.6992 10.8334C15.7721 9.87502 16.3867 8.43752 16.2617 6.87502C16.1888 6.03127 15.8971 5.26044 15.4596 4.60419C15.8555 4.40627 16.3138 4.28127 16.7826 4.23961C18.8242 4.06252 20.6471 5.58336 20.8242 7.64586Z" fill="white"/>
<path opacity="0.4" d="M22.9076 17.2813C22.8242 18.2918 22.1784 19.1668 21.0951 19.7605C20.0534 20.3334 18.7409 20.6043 17.4388 20.573C18.1888 19.8959 18.6263 19.0522 18.7096 18.1563C18.8138 16.8647 18.1992 15.6251 16.9701 14.6355C16.2721 14.0834 15.4596 13.6459 14.5742 13.323C16.8763 12.6563 19.7721 13.1043 21.5534 14.5418C22.5117 15.3126 23.0013 16.2813 22.9076 17.2813Z" fill="white"/>
</svg>
