<svg width="253" height="23" viewBox="0 0 253 23" fill="none" xmlns="http://www.w3.org/2000/svg">
<path d="M42.96 17.2001H40.24L34.36 3.12012H37.54L41.62 13.2001L45.72 3.12012H48.84L42.96 17.2001ZM53.3986 17.1201H50.5786V7.14012H53.3986V17.1201ZM50.2986 4.50012C50.2986 3.54012 51.0386 2.80012 51.9786 2.80012C52.9186 2.80012 53.6586 3.54012 53.6586 4.50012C53.6586 5.44012 52.9186 6.18012 51.9786 6.18012C51.0386 6.18012 50.2986 5.44012 50.2986 4.50012ZM59.118 17.1201H56.298V7.14012H59.118V8.82012C59.418 8.30012 59.878 7.84012 60.518 7.46012C61.158 7.08012 61.858 6.88012 62.598 6.88012C62.738 6.88012 62.838 6.88012 62.918 6.90012V9.66012C62.678 9.60012 62.378 9.56012 62.038 9.56012C60.678 9.56012 59.518 10.4001 59.118 11.3001V17.1201ZM66.3005 14.0201V9.50012H64.3405V7.14012H66.3005V4.40012H69.1205V7.14012H71.9605V9.50012H69.1205V13.4601C69.1205 14.4401 69.5205 14.8601 70.4805 14.8601C70.9805 14.8601 71.4605 14.7401 71.9405 14.5001V16.8401C71.3605 17.2001 70.5805 17.3801 69.5605 17.3801C67.3805 17.3801 66.3005 16.2601 66.3005 14.0201ZM80.9886 13.5001V7.14012H83.8086V17.1201H80.9886V15.9201C80.0886 16.9001 78.9886 17.3801 77.6486 17.3801C75.3286 17.3801 74.0086 15.8201 74.0086 13.2601V7.14012H76.8286V12.6801C76.8286 14.2201 77.6886 14.8001 78.7286 14.8001C79.6086 14.8001 80.5086 14.2401 80.9886 13.5001ZM96.0714 14.9401C96.3114 14.9401 96.5114 14.9001 96.6514 14.8201V16.8801C96.2914 17.1601 95.7914 17.3001 95.1314 17.3001C93.9914 17.3001 93.2514 16.8801 92.8714 16.0201C91.9914 16.9201 90.8514 17.3801 89.4314 17.3801C87.2714 17.3801 85.7514 16.0601 85.7514 14.0401C85.7514 12.9801 86.1314 12.1601 86.9114 11.6001C87.6914 11.0401 88.6114 10.7601 89.6914 10.7601C90.8114 10.7601 91.7714 10.9601 92.5714 11.3801V11.0801C92.5714 9.82012 91.6914 9.20012 89.9314 9.20012C88.8714 9.20012 87.8514 9.48012 86.9114 10.0401V7.68012C87.9314 7.14012 89.1514 6.88012 90.6114 6.88012C92.0314 6.88012 93.1914 7.22012 94.0514 7.92012C94.9314 8.62012 95.3714 9.58012 95.3714 10.8001V14.1801C95.3714 14.6801 95.6114 14.9401 96.0714 14.9401ZM92.5714 14.1801V13.1801C91.9914 12.8001 91.3114 12.6001 90.4914 12.6001C89.2914 12.6001 88.5314 13.0801 88.5314 13.9001C88.5314 14.7801 89.2714 15.2001 90.3114 15.2001C91.2914 15.2001 92.0514 14.8601 92.5714 14.1801ZM101.263 17.3801C99.7227 17.3801 98.6027 16.6201 98.6027 14.6201V3.12012H101.423V13.8801C101.423 14.5401 101.723 14.8801 102.323 14.8801C102.603 14.8801 102.843 14.8201 103.043 14.7001V17.0201C102.563 17.2601 101.963 17.3801 101.263 17.3801ZM114.887 17.4001C112.787 17.4001 111.007 16.9001 109.567 15.9001V12.9001C110.147 13.4001 110.907 13.8401 111.887 14.2201C112.867 14.5801 113.827 14.7601 114.767 14.7601C116.287 14.7601 117.467 14.2001 117.467 13.1401C117.467 12.6401 117.227 12.2001 116.747 11.9801C116.487 11.8201 116.347 11.7601 115.947 11.6201L115.467 11.4601L114.347 11.1201L113.307 10.7801C113.107 10.7201 112.787 10.6001 112.367 10.4401C111.947 10.2801 111.647 10.1401 111.467 10.0201C111.087 9.76012 110.407 9.28012 110.147 8.80012C109.907 8.32012 109.667 7.64012 109.667 6.84012C109.667 5.60012 110.147 4.62012 111.087 3.92012C112.027 3.20012 113.327 2.84012 114.947 2.84012C116.567 2.84012 118.107 3.22012 119.527 4.00012V6.80012C118.107 5.92012 116.587 5.48012 114.987 5.48012C113.407 5.48012 112.607 5.94012 112.607 6.86012C112.607 7.32012 112.887 7.60012 113.347 7.82012C113.607 7.96012 114.107 8.14012 114.487 8.24012C114.867 8.34012 115.587 8.54012 116.007 8.68012C117.347 9.10012 118.107 9.48012 119.047 10.1401C119.987 10.8001 120.447 11.7801 120.447 13.0601C120.447 14.4001 119.927 15.4601 118.867 16.2401C117.807 17.0201 116.487 17.4001 114.887 17.4001ZM123.371 14.0201V9.50012H121.411V7.14012H123.371V4.40012H126.191V7.14012H129.031V9.50012H126.191V13.4601C126.191 14.4401 126.591 14.8601 127.551 14.8601C128.051 14.8601 128.531 14.7401 129.011 14.5001V16.8401C128.431 17.2001 127.651 17.3801 126.631 17.3801C124.451 17.3801 123.371 16.2601 123.371 14.0201ZM138.059 13.5001V7.14012H140.879V17.1201H138.059V15.9201C137.159 16.9001 136.059 17.3801 134.719 17.3801C132.399 17.3801 131.079 15.8201 131.079 13.2601V7.14012H133.899V12.6801C133.899 14.2201 134.759 14.8001 135.799 14.8001C136.679 14.8001 137.579 14.2401 138.059 13.5001ZM147.682 17.3801C146.322 17.3801 145.202 16.8801 144.302 15.8801C143.422 14.8601 142.982 13.6201 142.982 12.1201C142.982 10.6401 143.422 9.40012 144.302 8.40012C145.202 7.38012 146.322 6.88012 147.682 6.88012C149.102 6.88012 150.182 7.38012 150.962 8.36012V3.12012H153.782V17.1201H150.962V15.9001C150.222 16.8801 149.122 17.3801 147.682 17.3801ZM148.482 14.9201C149.582 14.9201 150.502 14.2801 150.962 13.4201V10.8201C150.502 9.96012 149.582 9.34012 148.482 9.34012C147.702 9.34012 147.042 9.60012 146.542 10.1401C146.042 10.6801 145.782 11.3401 145.782 12.1201C145.782 12.9201 146.042 13.5801 146.542 14.1201C147.042 14.6601 147.702 14.9201 148.482 14.9201ZM159.492 17.1201H156.672V7.14012H159.492V17.1201ZM156.392 4.50012C156.392 3.54012 157.132 2.80012 158.072 2.80012C159.012 2.80012 159.752 3.54012 159.752 4.50012C159.752 5.44012 159.012 6.18012 158.072 6.18012C157.132 6.18012 156.392 5.44012 156.392 4.50012ZM165.292 14.1201C165.812 14.6601 166.472 14.9201 167.272 14.9201C168.072 14.9201 168.732 14.6601 169.252 14.1201C169.772 13.5801 170.032 12.9201 170.032 12.1201C170.032 11.3201 169.772 10.6601 169.252 10.1401C168.732 9.60012 168.072 9.34012 167.272 9.34012C166.472 9.34012 165.812 9.60012 165.292 10.1401C164.772 10.6601 164.512 11.3201 164.512 12.1201C164.512 12.9201 164.772 13.5801 165.292 14.1201ZM161.732 12.1201C161.732 10.6401 162.252 9.40012 163.292 8.40012C164.332 7.38012 165.652 6.88012 167.272 6.88012C168.892 6.88012 170.212 7.38012 171.252 8.40012C172.292 9.42012 172.812 10.6601 172.812 12.1201C172.812 13.6201 172.292 14.8601 171.252 15.8801C170.212 16.8801 168.892 17.3801 167.272 17.3801C165.652 17.3801 164.332 16.8801 163.292 15.8801C162.252 14.8601 161.732 13.6201 161.732 12.1201Z" fill="#263959"/>
<path d="M190.298 18.4883C189.262 18.4883 188.403 18.1523 187.722 17.4803C187.041 16.799 186.7 15.9496 186.7 14.9323C186.7 13.9243 187.045 13.0843 187.736 12.4123C188.417 11.731 189.276 11.3903 190.312 11.3903C191.096 11.3903 191.777 11.5536 192.356 11.8803V12.8183C191.749 12.473 191.115 12.3003 190.452 12.3003C189.668 12.3003 189.019 12.5523 188.506 13.0563C187.993 13.5416 187.736 14.1716 187.736 14.9463C187.736 15.7023 187.993 16.3323 188.506 16.8363C189.029 17.331 189.677 17.5783 190.452 17.5783C191.199 17.5783 191.875 17.3823 192.482 16.9903V17.9143C191.847 18.297 191.119 18.4883 190.298 18.4883ZM196.814 17.5783C197.28 17.5783 197.724 17.471 198.144 17.2563C198.564 17.0416 198.904 16.771 199.166 16.4443V15.5063C198.475 15.0583 197.742 14.8343 196.968 14.8343C196.352 14.8343 195.862 14.9556 195.498 15.1983C195.143 15.441 194.966 15.7723 194.966 16.1923C194.966 16.631 195.138 16.9716 195.484 17.2143C195.829 17.457 196.272 17.5783 196.814 17.5783ZM196.534 18.4883C195.815 18.4883 195.204 18.2923 194.7 17.9003C194.205 17.4896 193.958 16.939 193.958 16.2483C193.958 15.567 194.219 15.021 194.742 14.6103C195.264 14.209 195.927 14.0083 196.73 14.0083C197.607 14.0083 198.419 14.2276 199.166 14.6663V13.9943C199.166 12.865 198.424 12.3003 196.94 12.3003C196.146 12.3003 195.409 12.529 194.728 12.9863V12.0063C195.39 11.5956 196.198 11.3903 197.15 11.3903C198.074 11.3903 198.806 11.6096 199.348 12.0483C199.898 12.4776 200.174 13.0936 200.174 13.8963V16.6823C200.174 16.9436 200.23 17.149 200.342 17.2983C200.463 17.4476 200.622 17.5223 200.818 17.5223C200.967 17.5223 201.098 17.4943 201.21 17.4383V18.2223C201.06 18.325 200.836 18.3763 200.538 18.3763C200.202 18.3763 199.917 18.2876 199.684 18.1103C199.46 17.9236 199.32 17.653 199.264 17.2983C198.582 18.0916 197.672 18.4883 196.534 18.4883ZM205.14 18.4883C204.599 18.4883 204.067 18.423 203.544 18.2923C203.031 18.1523 202.63 17.9843 202.34 17.7883V16.7523C203.162 17.303 204.086 17.5783 205.112 17.5783C205.691 17.5783 206.144 17.485 206.47 17.2983C206.806 17.1023 206.974 16.8363 206.974 16.5003C206.974 16.211 206.816 15.973 206.498 15.7863C206.405 15.7116 206.167 15.6276 205.784 15.5343C205.672 15.497 205.518 15.4596 205.322 15.4223C205.07 15.357 204.916 15.3196 204.86 15.3103C204.011 15.0956 203.404 14.8436 203.04 14.5543C202.676 14.2556 202.494 13.8263 202.494 13.2663C202.494 12.6783 202.732 12.221 203.208 11.8943C203.684 11.5583 204.352 11.3903 205.21 11.3903C206.228 11.3903 207.049 11.591 207.674 11.9923V12.9863C206.909 12.529 206.102 12.3003 205.252 12.3003C204.683 12.3003 204.249 12.389 203.95 12.5663C203.661 12.7436 203.516 12.9863 203.516 13.2943C203.516 13.6303 203.689 13.8823 204.034 14.0503C204.1 14.069 204.179 14.1016 204.272 14.1483C204.375 14.1856 204.478 14.2183 204.58 14.2463L204.888 14.3303C205.112 14.405 205.336 14.4563 205.56 14.4843C206.4 14.6896 207.016 14.9416 207.408 15.2403C207.81 15.539 208.01 15.9636 208.01 16.5143C208.01 17.1303 207.74 17.611 207.198 17.9563C206.657 18.311 205.971 18.4883 205.14 18.4883ZM210.975 13.7563V18.3203H209.967V8.52031H210.975V12.5943C211.694 11.7916 212.595 11.3903 213.677 11.3903C214.508 11.3903 215.143 11.6376 215.581 12.1323C216.029 12.6176 216.253 13.3083 216.253 14.2043V18.3203H215.245V14.4283C215.245 13.0376 214.606 12.3423 213.327 12.3423C212.861 12.3423 212.408 12.487 211.969 12.7763C211.521 13.0656 211.19 13.3923 210.975 13.7563ZM219.52 18.3203H218.512V11.5583H219.52V12.8463C219.772 12.4076 220.146 12.0576 220.64 11.7963C221.135 11.5256 221.658 11.3903 222.208 11.3903V12.4123C221.9 12.4123 221.62 12.4543 221.368 12.5383C220.939 12.6503 220.561 12.8463 220.234 13.1263C219.908 13.397 219.67 13.705 219.52 14.0503V18.3203ZM224.212 12.4403C224.894 11.7403 225.771 11.3903 226.844 11.3903C227.918 11.3903 228.795 11.7403 229.476 12.4403C230.158 13.1216 230.498 13.957 230.498 14.9463C230.498 15.9356 230.158 16.771 229.476 17.4523C228.786 18.143 227.908 18.4883 226.844 18.4883C225.78 18.4883 224.903 18.143 224.212 17.4523C223.531 16.771 223.19 15.9356 223.19 14.9463C223.19 13.957 223.531 13.1216 224.212 12.4403ZM229.462 14.9463C229.462 14.1996 229.215 13.5696 228.72 13.0563C228.226 12.5523 227.6 12.3003 226.844 12.3003C226.088 12.3003 225.463 12.5523 224.968 13.0563C224.474 13.5696 224.226 14.1996 224.226 14.9463C224.226 15.6836 224.474 16.309 224.968 16.8223C225.463 17.3263 226.088 17.5783 226.844 17.5783C227.6 17.5783 228.226 17.3263 228.72 16.8223C229.215 16.309 229.462 15.6836 229.462 14.9463ZM232.908 12.4403C233.589 11.7403 234.466 11.3903 235.54 11.3903C236.613 11.3903 237.49 11.7403 238.172 12.4403C238.853 13.1216 239.194 13.957 239.194 14.9463C239.194 15.9356 238.853 16.771 238.172 17.4523C237.481 18.143 236.604 18.4883 235.54 18.4883C234.476 18.4883 233.598 18.143 232.908 17.4523C232.226 16.771 231.886 15.9356 231.886 14.9463C231.886 13.957 232.226 13.1216 232.908 12.4403ZM238.158 14.9463C238.158 14.1996 237.91 13.5696 237.416 13.0563C236.921 12.5523 236.296 12.3003 235.54 12.3003C234.784 12.3003 234.158 12.5523 233.664 13.0563C233.169 13.5696 232.922 14.1996 232.922 14.9463C232.922 15.6836 233.169 16.309 233.664 16.8223C234.158 17.3263 234.784 17.5783 235.54 17.5783C236.296 17.5783 236.921 17.3263 237.416 16.8223C237.91 16.309 238.158 15.6836 238.158 14.9463ZM242.079 18.3203H241.071V11.5583H242.079V12.5663C242.639 11.7823 243.451 11.3903 244.515 11.3903C245.066 11.3903 245.528 11.507 245.901 11.7403C246.284 11.9736 246.545 12.3003 246.685 12.7203C246.946 12.319 247.301 11.997 247.749 11.7543C248.206 11.5116 248.72 11.3903 249.289 11.3903C250.045 11.3903 250.633 11.6283 251.053 12.1043C251.473 12.571 251.683 13.2383 251.683 14.1063V18.3203H250.675V14.3303C250.675 13.005 250.115 12.3423 248.995 12.3423C248.584 12.3423 248.174 12.487 247.763 12.7763C247.362 13.0563 247.058 13.397 246.853 13.7983C246.853 13.8916 246.853 13.999 246.853 14.1203C246.862 14.2416 246.867 14.335 246.867 14.4003C246.876 14.4656 246.881 14.517 246.881 14.5543V18.3203H245.873V14.3303C245.873 13.005 245.313 12.3423 244.193 12.3423C243.801 12.3423 243.4 12.4823 242.989 12.7623C242.597 13.0236 242.294 13.3503 242.079 13.7423V18.3203Z" fill="#8584AD"/>
<path d="M15.1176 10.6027C16.7275 12.2769 16.7275 14.9238 15.1176 16.598C13.4159 18.3678 10.5841 18.3678 8.8824 16.598C7.27254 14.9238 7.27254 12.2769 8.8824 10.6027C10.5841 8.83292 13.4159 8.83292 15.1176 10.6027Z" fill="#AA84CA"/>
<path d="M9.1176 3.32238C10.7275 4.99664 10.7275 7.64352 9.1176 9.31777C7.41593 11.0875 4.58407 11.0875 2.8824 9.31777C1.27254 7.64352 1.27254 4.99664 2.8824 3.32238C4.58407 1.55265 7.41593 1.55265 9.1176 3.32238Z" fill="#AA84CA"/>
<path d="M21.1176 3.32238C22.7275 4.99664 22.7275 7.64352 21.1176 9.31777C19.4159 11.0875 16.5841 11.0875 14.8824 9.31777C13.2725 7.64352 13.2725 4.99664 14.8824 3.32238C16.5841 1.55265 19.4159 1.55265 21.1176 3.32238Z" fill="#AA84CA"/>
</svg>
