<svg width="32" height="32" viewBox="0 0 32 32" fill="none" xmlns="http://www.w3.org/2000/svg">
<path d="M14.557 25.5119C8.9171 25.5119 4.32921 21.3613 4.32921 16.2582C4.32921 12.4778 6.84773 9.22002 10.4464 7.78597L7.86402 4.19922C3.19604 6.4634 0 11.0188 0 16.2582C0 23.7478 6.53062 29.8412 14.557 29.8412C16.6534 29.8412 18.647 29.4245 20.449 28.6777L17.8223 25.0281C16.7963 25.342 15.6988 25.5119 14.557 25.5119Z" fill="white"/>
<path d="M10.0117 7.32883H10.1161L10.0117 7.18359V7.32883Z" fill="white"/>
<path d="M24.9356 20.424C28.4834 19.2714 31.0647 15.9541 31.1112 12.0372C31.1707 7.0673 27.0255 3 22.0545 3H11.6243C11.3711 3 11.2239 3.28681 11.3711 3.49245L14.1125 7.32705C14.1125 7.32705 14.1147 7.32921 14.1158 7.32921H22.0934C24.77 7.32921 26.9259 9.5198 26.7755 12.1909C26.6391 14.6055 24.6314 16.5288 22.1833 16.5288H17.0174C16.7642 16.5288 16.6213 16.8199 16.7783 17.0202L26.8307 29.8942C26.8307 29.8942 26.8329 29.8963 26.8339 29.8963H31.6859C31.9457 29.8963 32.0907 29.5976 31.9316 29.3931L24.9345 20.4316C24.9345 20.4316 24.9345 20.4262 24.9367 20.4251L24.9356 20.424Z" fill="white"/>
</svg>
