<svg width="32" height="32" viewBox="0 0 32 32" fill="none" xmlns="http://www.w3.org/2000/svg">
<path opacity="0.4" d="M25.5 29.4588H23.9167V29.063C23.9167 27.3213 22.4917 25.8963 20.75 25.8963H17.1875V22.2705C16.7917 22.318 16.3958 22.3338 16 22.3338C15.6042 22.3338 15.2083 22.318 14.8125 22.2705V25.8963H11.25C9.50833 25.8963 8.08333 27.3213 8.08333 29.063V29.4588H6.5C5.85083 29.4588 5.3125 29.9972 5.3125 30.6463C5.3125 31.2955 5.85083 31.8338 6.5 31.8338H25.5C26.1492 31.8338 26.6875 31.2955 26.6875 30.6463C26.6875 29.9972 26.1492 29.4588 25.5 29.4588Z" fill="#AA84CA"/>
<path opacity="0.4" d="M5.73938 15.4303C4.69438 15.0345 3.77604 14.3853 3.04771 13.657C1.57521 12.0262 0.609375 10.0787 0.609375 7.79866C0.609375 5.51866 2.39854 3.72949 4.67854 3.72949H5.56521C5.15354 4.56866 4.91604 5.50283 4.91604 6.50033V11.2503C4.91604 12.7387 5.20104 14.1478 5.73938 15.4303Z" fill="#AA84CA"/>
<path opacity="0.4" d="M31.3878 7.79866C31.3878 10.0787 30.422 12.0262 28.9495 13.657C28.2211 14.3853 27.3028 15.0345 26.2578 15.4303C26.7961 14.1478 27.0811 12.7387 27.0811 11.2503V6.50033C27.0811 5.50283 26.8436 4.56866 26.432 3.72949H27.3186C29.5986 3.72949 31.3878 5.51866 31.3878 7.79866Z" fill="#AA84CA"/>
<path d="M20.7513 0.166992H11.2513C7.75214 0.166992 4.91797 3.00116 4.91797 6.50033V11.2503C4.91797 17.3778 9.8738 22.3337 16.0013 22.3337C22.1288 22.3337 27.0846 17.3778 27.0846 11.2503V6.50033C27.0846 3.00116 24.2505 0.166992 20.7513 0.166992ZM20.498 10.3795L19.5163 11.5828C19.358 11.757 19.2471 12.1053 19.263 12.3428L19.358 13.8945C19.4213 14.8445 18.7405 15.3353 17.8538 14.987L16.413 14.417C16.1913 14.3378 15.8113 14.3378 15.5896 14.417L14.1488 14.987C13.2621 15.3353 12.5813 14.8445 12.6446 13.8945L12.7396 12.3428C12.7555 12.1053 12.6446 11.757 12.4863 11.5828L11.5046 10.3795C10.8871 9.65116 11.1563 8.84366 12.0746 8.60616L13.5788 8.22616C13.8163 8.16283 14.1013 7.94116 14.228 7.73533L15.0671 6.43699C15.5896 5.62949 16.413 5.62949 16.9355 6.43699L17.7746 7.73533C17.9013 7.94116 18.1863 8.16283 18.4238 8.22616L19.928 8.60616C20.8463 8.84366 21.1155 9.65116 20.498 10.3795Z" fill="#AA84CA"/>
</svg>
