<svg width="20" height="20" viewBox="0 0 20 20" fill="none" xmlns="http://www.w3.org/2000/svg">
<path d="M10.7391 1.75024C10.7391 1.55133 10.6601 1.36057 10.5195 1.21991C10.3788 1.07926 10.1881 1.00024 9.98914 1.00024C9.79023 1.00024 9.59946 1.07926 9.45881 1.21991C9.31816 1.36057 9.23914 1.55133 9.23914 1.75024L9.23914 10.3642L6.28414 7.23524C6.14643 7.09553 5.95946 7.01534 5.76331 7.01185C5.56717 7.00837 5.37747 7.08188 5.23488 7.21661C5.0923 7.35135 5.00818 7.53659 5.00057 7.73262C4.99295 7.92864 5.06244 8.11985 5.19414 8.26524L9.44414 12.7652C9.51424 12.8394 9.59873 12.8984 9.69244 12.9388C9.78615 12.9792 9.88711 13 9.98914 13C10.0912 13 10.1921 12.9792 10.2858 12.9388C10.3796 12.8984 10.464 12.8394 10.5341 12.7652L14.7841 8.26524C14.8542 8.19415 14.9094 8.10979 14.9464 8.01709C14.9835 7.9244 15.0017 7.82524 14.9999 7.72544C14.9981 7.62563 14.9764 7.52718 14.9361 7.43586C14.8958 7.34454 14.8377 7.26219 14.7651 7.19363C14.6926 7.12507 14.6071 7.07168 14.5136 7.0366C14.4201 7.00152 14.3206 6.98544 14.2209 6.98932C14.1211 6.99319 14.0232 7.01694 13.9327 7.05917C13.8423 7.1014 13.7612 7.16126 13.6941 7.23524L10.7391 10.3642L10.7391 1.75024Z" fill="white"/>
<path d="M3.5 11.75C3.5 11.5511 3.42098 11.3603 3.28033 11.2197C3.13968 11.079 2.94891 11 2.75 11C2.55109 11 2.36032 11.079 2.21967 11.2197C2.07902 11.3603 2 11.5511 2 11.75V14.25C2 14.9793 2.28973 15.6788 2.80546 16.1945C3.32118 16.7103 4.02065 17 4.75 17H15.25C15.9793 17 16.6788 16.7103 17.1945 16.1945C17.7103 15.6788 18 14.9793 18 14.25V11.75C18 11.5511 17.921 11.3603 17.7803 11.2197C17.6397 11.079 17.4489 11 17.25 11C17.0511 11 16.8603 11.079 16.7197 11.2197C16.579 11.3603 16.5 11.5511 16.5 11.75V14.25C16.5 14.94 15.94 15.5 15.25 15.5H4.75C4.06 15.5 3.5 14.94 3.5 14.25V11.75Z" fill="white"/>
</svg>
