<svg width="18" height="18" viewBox="0 0 18 18" fill="none" xmlns="http://www.w3.org/2000/svg">
<path d="M4.43424 13.0363L5.69624 9.88132C5.89739 9.37871 6.19847 8.92216 6.58124 8.53932L13.5012 1.62132C13.8991 1.2235 14.4386 1 15.0012 1C15.5639 1 16.1034 1.2235 16.5012 1.62132C16.8991 2.01915 17.1226 2.55871 17.1226 3.12132C17.1226 3.68393 16.8991 4.2235 16.5012 4.62132L9.58124 11.5393C9.19824 11.9223 8.74124 12.2243 8.23824 12.4253L5.08424 13.6873C4.99338 13.7237 4.89384 13.7326 4.79796 13.7129C4.70209 13.6933 4.61409 13.6459 4.54488 13.5767C4.47568 13.5075 4.4283 13.4195 4.40864 13.3236C4.38897 13.2277 4.39787 13.1282 4.43424 13.0373V13.0363Z" fill="#8584AD"/>
<path d="M2.5 4.86914C2.5 4.17914 3.06 3.61914 3.75 3.61914H9C9.19891 3.61914 9.38968 3.54012 9.53033 3.39947C9.67098 3.25882 9.75 3.06805 9.75 2.86914C9.75 2.67023 9.67098 2.47946 9.53033 2.33881C9.38968 2.19816 9.19891 2.11914 9 2.11914H3.75C3.02065 2.11914 2.32118 2.40887 1.80546 2.9246C1.28973 3.44032 1 4.1398 1 4.86914V14.3691C1 15.0985 1.28973 15.798 1.80546 16.3137C2.32118 16.8294 3.02065 17.1191 3.75 17.1191H13.25C13.9793 17.1191 14.6788 16.8294 15.1945 16.3137C15.7103 15.798 16 15.0985 16 14.3691V9.11914C16 8.92023 15.921 8.72946 15.7803 8.58881C15.6397 8.44816 15.4489 8.36914 15.25 8.36914C15.0511 8.36914 14.8603 8.44816 14.7197 8.58881C14.579 8.72946 14.5 8.92023 14.5 9.11914V14.3691C14.5 15.0591 13.94 15.6191 13.25 15.6191H3.75C3.06 15.6191 2.5 15.0591 2.5 14.3691V4.86914Z" fill="#8584AD"/>
</svg>
