<svg width="20" height="21" viewBox="0 0 20 21" fill="none" xmlns="http://www.w3.org/2000/svg">
<g clip-path="url(#clip0_1156_4687)">
<path d="M17.1372 11.0226C17.8711 10.28 18.1552 9.39357 17.9184 8.62696C17.6817 7.86034 16.9479 7.30935 15.9063 7.14165L13.6337 6.75834C13.539 6.73438 13.326 6.5906 13.2786 6.49478L12.024 3.95537C11.0771 2.01488 8.9229 2.01488 7.976 3.95537L6.72136 6.49478C6.67402 6.5906 6.46096 6.73438 6.36627 6.75834L4.09371 7.14165C3.05212 7.30935 2.34195 7.86034 2.08156 8.62696C1.84483 9.39357 2.1289 10.28 2.86274 11.0226L4.61451 12.8194C4.68553 12.8913 4.78021 13.1787 4.75654 13.2746L4.25942 15.4785C3.88066 17.1076 4.49615 17.8502 4.89858 18.1617C5.30101 18.4492 6.1769 18.8325 7.62092 17.9701L9.75144 16.7004C9.84613 16.6285 10.1539 16.6285 10.2486 16.7004L12.3791 17.9701C13.0419 18.3773 13.5864 18.4971 14.0125 18.4971C14.5096 18.4971 14.8647 18.3054 15.0777 18.1617C15.4802 17.8742 16.0957 17.1316 15.7169 15.4785L15.2198 13.2746C15.1961 13.1548 15.2671 12.8913 15.3618 12.8194L17.1372 11.0226Z" fill="#AA84CA"/>
</g>
<defs>
<clipPath id="clip0_1156_4687">
<rect width="20" height="20" fill="white" transform="translate(0 0.5)"/>
</clipPath>
</defs>
</svg>
