<svg width="20" height="21" viewBox="0 0 20 21" fill="none" xmlns="http://www.w3.org/2000/svg">
<path d="M2.98089 9.468C2.98089 9.468 10.0574 5.95576 12.5116 4.71902C13.4524 4.22429 16.6429 2.64125 16.6429 2.64125C16.6429 2.64125 18.1155 1.94866 17.9927 3.6307C17.9519 4.32329 17.6245 6.74721 17.2974 9.36913C16.8066 13.0792 16.2748 17.1358 16.2748 17.1358C16.2748 17.1358 16.193 18.2735 15.4976 18.4715C14.8022 18.6694 13.657 17.7791 13.4525 17.5811C13.2889 17.4328 10.3846 15.2066 9.32118 14.1182C9.03483 13.8215 8.70762 13.2278 9.36205 12.5353C10.8346 10.9029 12.5936 8.87468 13.657 7.5885C14.1478 6.99478 14.6386 5.60974 12.5934 7.29164C9.68927 9.71556 6.82596 11.9912 6.82596 11.9912C6.82596 11.9912 6.17141 12.4859 4.94441 12.0406C3.71729 11.5955 2.28558 11.0017 2.28558 11.0017C2.28558 11.0017 1.30382 10.2594 2.98089 9.468Z" fill="white"/>
</svg>
