<svg width="19" height="19" viewBox="0 0 19 19" fill="none" xmlns="http://www.w3.org/2000/svg">
<path d="M1.73631 8.07044C1.73631 8.07044 9.69734 4.11918 12.4583 2.72784C13.5167 2.17127 17.1061 0.390354 17.1061 0.390354C17.1061 0.390354 18.7627 -0.388807 18.6246 1.50349C18.5787 2.28265 18.2104 5.00956 17.8424 7.95922C17.2902 12.1331 16.692 16.6967 16.692 16.6967C16.692 16.6967 16.6 17.9766 15.8176 18.1994C15.0353 18.422 13.7469 17.4204 13.5168 17.1976C13.3328 17.0308 10.0655 14.5263 8.86913 13.302C8.547 12.9682 8.17888 12.3002 8.91512 11.5212C10.5718 9.68468 12.5506 7.40296 13.7469 5.95601C14.2991 5.28807 14.8512 3.7299 12.5504 5.62204C9.28324 8.34895 6.06201 10.909 6.06201 10.909C6.06201 10.909 5.32565 11.4656 3.94527 10.9646C2.56477 10.4638 0.954094 9.7959 0.954094 9.7959C0.954094 9.7959 -0.150386 8.96082 1.73631 8.07044Z" fill="#AA84CA"/>
</svg>
